<?xml version="1.0" encoding="utf-8"?>
<!-- Generator: Adobe Illustrator 21.1.0, SVG Export Plug-In . SVG Version: 6.00 Build 0)  -->
<svg version="1.1" xmlns="http://www.w3.org/2000/svg" xmlns:xlink="http://www.w3.org/1999/xlink" x="0px" y="0px"
	 viewBox="0 0 24 24" style="enable-background:new 0 0 24 24;" xml:space="preserve">
<style type="text/css">
	.st0{clip-path:url(#SVGID_2_);fill:#4B4B4B;}
	.st1{fill:#988888;}
	.st2{opacity:0.7;fill:#546E7A;}
	.st3{fill:#546E7A;}
	.st4{fill:#999999;}
	.st5{fill:#FFFFFF;}
	.st6{fill:#DDDDDD;}
	.st7{fill:#EE9A9E;}
	.st8{fill:#F6BA84;}
	.st9{fill:#FBFACB;}
	.st10{fill:none;}
	.st11{opacity:0.9;}
	.st12{fill:#988989;}
	.st13{display:none;}
	.st14{display:inline;opacity:0.7;}
	.st15{fill:#AAAAAA;}
	.st16{fill:#EEEEEE;}
</style>
<g id="レイヤー_2">
</g>
<g id="ガイド">
</g>
<g id="レイヤー_3">
	<g>
		<polygon class="st10" points="8.367,13.18 6.122,20.09 6.122,20.09 		"/>
		<path d="M15.045,13.607c0.35-0.255,0.497-0.706,0.363-1.118l-2.457-7.562c-0.299-0.921-1.603-0.921-1.902,0L7.073,17.163
			c-0.299,0.921,0.755,1.687,1.539,1.118L15.045,13.607z"/>
	</g>
	<g>
		<polygon class="st10" points="16.827,16.854 14.552,15.202 13.701,15.82 17.352,18.472 		"/>
		<path d="M16.927,17.163l-0.544-1.674c-0.21-0.646-0.989-0.899-1.539-0.5l-0.88,0.639c-0.55,0.399-0.55,1.219,0,1.618l1.424,1.034
			C16.172,18.851,17.226,18.084,16.927,17.163z"/>
	</g>
</g>
<g id="レイヤー_6" class="st13">
</g>
<g id="レイヤー_4">
</g>
<g id="レイヤー_5">
</g>
</svg>
