<?xml version="1.0" encoding="utf-8"?>
<!-- Generator: Adobe Illustrator 21.1.0, SVG Export Plug-In . SVG Version: 6.00 Build 0)  -->
<svg version="1.1" xmlns="http://www.w3.org/2000/svg" xmlns:xlink="http://www.w3.org/1999/xlink" x="0px" y="0px"
	 viewBox="0 0 24 24" style="enable-background:new 0 0 24 24;" xml:space="preserve">
<style type="text/css">
	.st0{clip-path:url(#SVGID_2_);fill:#4B4B4B;}
	.st1{fill:#988888;}
	.st2{opacity:0.7;fill:#546E7A;}
	.st3{fill:#546E7A;}
	.st4{fill:#999999;}
	.st5{fill:#FFFFFF;}
	.st6{fill:#DDDDDD;}
	.st7{fill:#EE9A9E;}
	.st8{fill:#F6BA84;}
	.st9{fill:#FBFACB;}
	.st10{fill:none;}
	.st11{opacity:0.7;fill:none;}
	.st12{fill:#AAAAAA;}
	.st13{fill:#EEEEEE;}
</style>
<g id="レイヤー_2">
</g>
<g id="ガイド">
</g>
<g id="レイヤー_3">
	<polygon class="st11" points="8.367,13.18 6.122,20.09 12,15.82 17.878,20.09 15.633,13.18 12,2 	"/>
	<g>
		<polygon class="st10" points="8.367,13.18 6.122,20.09 6.122,20.09 		"/>
		<polygon points="7.499,19.09 12.526,3.618 12,2 8.367,13.18 6.122,20.09 		"/>
		<polygon points="10.251,17.09 13.577,6.854 13.051,5.236 8.875,18.09 		"/>
		<polygon points="12,15.82 13.004,15.09 14.629,10.09 14.103,8.472 11.628,16.09 		"/>
		<polygon points="15.633,13.18 15.154,11.708 14.38,14.09 		"/>
	</g>
	<polygon points="12.851,16.438 17.878,20.09 15.958,14.18 	"/>
</g>
<g id="レイヤー_4">
</g>
<g id="レイヤー_5">
</g>
</svg>
