<?xml version="1.0" encoding="utf-8"?>
<!-- Generator: Adobe Illustrator 21.1.0, SVG Export Plug-In . SVG Version: 6.00 Build 0)  -->
<svg version="1.1" xmlns="http://www.w3.org/2000/svg" xmlns:xlink="http://www.w3.org/1999/xlink" x="0px" y="0px"
	 viewBox="0 0 24 24" style="enable-background:new 0 0 24 24;" xml:space="preserve">
<style type="text/css">
	.st0{clip-path:url(#SVGID_2_);fill:#4B4B4B;}
	.st1{fill:#988888;}
	.st2{opacity:0.7;fill:#546E7A;}
	.st3{fill:#546E7A;}
	.st4{fill:#999999;}
	.st5{fill:#FFFFFF;}
	.st6{fill:#DDDDDD;}
	.st7{fill:#EE9A9E;}
	.st8{fill:#F6BA84;}
	.st9{fill:#FBFACB;}
	.st10{fill:none;}
	.st11{fill:#AAAAAA;}
</style>
<g id="レイヤー_2">
</g>
<g id="ガイド">
</g>
<g id="レイヤー_3">
</g>
<g id="レイヤー_4">
</g>
<g id="レイヤー_5">
	<polygon class="st10" points="15.353,13.384 15.633,13.18 15.526,12.851 	"/>
	<polygon class="st10" points="14.526,9.773 12.735,15.286 13.976,14.384 15,11.233 	"/>
	<polygon class="st10" points="13.526,6.696 10.117,17.188 11.358,16.286 14,8.155 	"/>
	<polygon class="st10" points="12.526,3.618 7.499,19.09 8.74,18.188 13,5.078 	"/>
	<g>
		<polygon points="12,2 8.367,13.18 6.122,20.09 7.499,19.09 12.526,3.618 		"/>
		<polygon points="13,5.078 8.74,18.188 10.117,17.188 13.526,6.696 		"/>
		<polygon points="14,8.155 11.358,16.286 12,15.82 12.735,15.286 14.526,9.773 		"/>
		<polygon points="15,11.233 13.976,14.384 15.353,13.384 15.526,12.851 		"/>
	</g>
	<polygon class="st10" points="16.501,19.09 14.782,13.798 14.015,14.356 15.26,18.188 	"/>
	<polygon class="st10" points="14.689,17.774 13.883,17.188 13.164,14.974 12.397,15.531 12.642,16.286 	"/>
	<g>
		<polygon points="15.633,13.18 14.782,13.798 16.501,19.09 17.878,20.09 		"/>
		<polygon points="13.164,14.974 13.883,17.188 14.689,17.774 15.26,18.188 14.015,14.356 		"/>
		<polygon points="12,15.82 12.642,16.286 12.397,15.531 		"/>
	</g>
</g>
</svg>
