<?xml version="1.0" encoding="utf-8"?>
<!-- Generator: Adobe Illustrator 22.0.1, SVG Export Plug-In . SVG Version: 6.00 Build 0)  -->
<svg version="1.1" xmlns="http://www.w3.org/2000/svg" xmlns:xlink="http://www.w3.org/1999/xlink" x="0px" y="0px"
	 viewBox="0 0 24 24" style="enable-background:new 0 0 24 24;" xml:space="preserve">
<style type="text/css">
	.st0{clip-path:url(#SVGID_2_);fill:#4B4B4B;}
	.st1{fill:#988888;}
	.st2{opacity:0.7;fill:#546E7A;}
	.st3{fill:#546E7A;}
	.st4{fill:#999999;}
	.st5{fill:#FFFFFF;}
	.st6{fill:#DDDDDD;}
	.st7{fill:#EE9A9E;}
	.st8{fill:#F6BA84;}
	.st9{fill:#FBFACB;}
	.st10{fill:none;}
	.st11{opacity:0.9;}
	.st12{fill:#988989;}
	.st13{fill:url(#SVGID_3_);}
	.st14{fill:url(#SVGID_4_);}
	.st15{fill:url(#SVGID_5_);}
	.st16{fill:url(#SVGID_6_);}
	.st17{fill:url(#SVGID_7_);}
	.st18{fill:url(#SVGID_8_);}
	.st19{fill:url(#SVGID_9_);}
	.st20{fill:#666666;}
	.st21{fill:url(#SVGID_10_);}
	.st22{display:none;}
	.st23{display:inline;fill:url(#SVGID_11_);}
	.st24{display:inline;opacity:0.7;}
	.st25{fill:#AAAAAA;}
	.st26{fill:#EEEEEE;}
</style>
<g id="レイヤー_2">
</g>
<g id="ガイド">
</g>
<g id="レイヤー_3">
	<g>
		
			<linearGradient id="SVGID_2_" gradientUnits="userSpaceOnUse" x1="2.9828" y1="10.3577" x2="22.9828" y2="10.3577" gradientTransform="matrix(0.342 0.9397 -0.9397 0.342 21.2242 -3.7424)">
			<stop  offset="0" style="stop-color:#555555"/>
			<stop  offset="1" style="stop-color:#999999"/>
		</linearGradient>
		<path style="fill:url(#SVGID_2_);" d="M16.104,18.322L10.632,3.287l0,0c2.076-0.756,4.371,0.315,5.127,2.391l5.472,15.035h0
			C19.155,21.468,16.86,20.398,16.104,18.322z"/>
		
			<linearGradient id="SVGID_3_" gradientUnits="userSpaceOnUse" x1="22.9828" y1="10.3577" x2="2.9828" y2="10.3577" gradientTransform="matrix(-0.342 0.9397 0.9397 0.342 2.7758 -3.7424)">
			<stop  offset="0" style="stop-color:#555555"/>
			<stop  offset="1" style="stop-color:#999999"/>
		</linearGradient>
		<path class="st13" d="M7.896,18.322l5.472-15.035l0,0c-2.076-0.756-4.371,0.315-5.127,2.391L2.769,20.713h0
			C4.845,21.468,7.14,20.398,7.896,18.322z"/>
	</g>
</g>
<g id="レイヤー_7">
</g>
<g id="レイヤー_9">
</g>
<g id="レイヤー_7のコピー" class="st22">
	
		<linearGradient id="SVGID_4_" gradientUnits="userSpaceOnUse" x1="22.9828" y1="10.3577" x2="2.9828" y2="10.3577" gradientTransform="matrix(-0.342 0.9397 0.9397 0.342 2.7758 -3.7424)">
		<stop  offset="0" style="stop-color:#444444"/>
		<stop  offset="1" style="stop-color:#666666"/>
	</linearGradient>
	<path style="display:inline;fill:url(#SVGID_4_);" d="M7.896,18.322l5.472-15.035l0,0c-2.076-0.756-4.371,0.315-5.127,2.391
		L2.769,20.713h0C4.845,21.468,7.14,20.398,7.896,18.322z"/>
</g>
<g id="レイヤー_6" class="st22">
</g>
<g id="レイヤー_4">
</g>
<g id="レイヤー_5">
</g>
</svg>
