<?xml version="1.0" encoding="utf-8"?>
<!-- Generator: Adobe Illustrator 22.0.1, SVG Export Plug-In . SVG Version: 6.00 Build 0)  -->
<svg version="1.1" xmlns="http://www.w3.org/2000/svg" xmlns:xlink="http://www.w3.org/1999/xlink" x="0px" y="0px"
	 viewBox="0 0 57.958 24.044" style="enable-background:new 0 0 57.958 24.044;" xml:space="preserve">
<style type="text/css">
	.st0{clip-path:url(#SVGID_2_);fill:#4B4B4B;}
	.st1{fill:#988888;}
	.st2{fill:#FFFFFF;}
	.st3{fill:url(#SVGID_3_);}
	.st4{opacity:0.7;fill:#546E7A;}
	.st5{fill:#546E7A;}
	.st6{fill:#999999;}
	.st7{fill:#DDDDDD;}
	.st8{fill:#EE9A9E;}
	.st9{fill:#F6BA84;}
	.st10{fill:#FBFACB;}
	.st11{fill:none;}
	.st12{opacity:0.9;}
	.st13{fill:#988989;}
	.st14{fill:url(#SVGID_4_);}
	.st15{fill:url(#SVGID_5_);}
	.st16{fill:url(#SVGID_6_);}
	.st17{fill:url(#SVGID_7_);}
	.st18{fill:url(#SVGID_8_);}
	.st19{fill:url(#SVGID_9_);}
	.st20{fill:url(#SVGID_10_);}
	.st21{fill:url(#SVGID_11_);}
	.st22{fill:url(#SVGID_12_);}
	.st23{fill:#794DFF;}
	.st24{fill:url(#SVGID_13_);}
	.st25{fill:url(#SVGID_14_);}
	.st26{fill:#666666;}
	.st27{stroke:#000000;stroke-width:0.25;stroke-miterlimit:10;}
	.st28{fill:url(#SVGID_15_);}
	.st29{fill:url(#SVGID_16_);}
	.st30{display:none;}
	.st31{display:inline;fill:url(#SVGID_17_);}
	.st32{display:inline;fill:url(#SVGID_18_);}
	.st33{display:inline;fill:url(#SVGID_19_);}
	.st34{display:inline;fill:url(#SVGID_20_);}
	.st35{display:inline;fill:url(#SVGID_21_);}
	.st36{display:inline;fill:url(#SVGID_22_);}
	.st37{display:inline;fill:url(#SVGID_23_);}
	.st38{display:inline;fill:url(#SVGID_24_);}
	.st39{display:inline;fill:url(#SVGID_25_);}
	.st40{display:inline;fill:url(#SVGID_26_);}
	.st41{display:inline;fill:url(#SVGID_27_);}
	.st42{display:inline;fill:url(#SVGID_28_);}
	.st43{display:inline;fill:url(#SVGID_29_);}
	.st44{display:inline;fill:url(#SVGID_30_);}
	.st45{display:inline;fill:url(#SVGID_31_);}
	.st46{display:inline;fill:url(#SVGID_32_);}
	.st47{display:inline;fill:url(#SVGID_33_);}
	.st48{display:inline;fill:url(#SVGID_34_);}
	.st49{display:inline;fill:url(#SVGID_35_);}
	.st50{display:inline;fill:url(#SVGID_36_);}
	.st51{display:inline;fill:url(#SVGID_37_);}
	.st52{display:inline;opacity:0.7;}
	.st53{fill:#AAAAAA;}
	.st54{fill:#EEEEEE;}
</style>
<g id="レイヤー_2">
</g>
<g id="ガイド">
</g>
<g id="レイヤー_3">
	<polygon class="st26" points="13.958,3.002 13.958,10.502 5.958,10.502 5.958,3.002 2.958,3.002 2.958,10.502 2.958,13.502 
		2.958,21.002 5.958,21.002 5.958,13.502 13.958,13.502 13.958,21.002 16.958,21.002 16.958,13.502 16.958,10.502 16.958,3.002 	"/>
	<path class="st26" d="M32.958,3.002v11c0,2.209-1.791,4-4,4s-4-1.791-4-4v-11h-3v11c0,3.866,3.134,7,7,7s7-3.134,7-7v-11H32.958z"
		/>
	<path class="st26" d="M54.958,8.502c0-3.038-2.462-5.5-5.5-5.5h-8.5V10.5v3.002V21h8.5c3.038,0,5.5-2.462,5.5-5.5
		c0-1.364-0.549-2.597-1.434-3.499C54.409,11.099,54.958,9.866,54.958,8.502z M43.958,6.002h5.5c1.379,0,2.5,1.121,2.5,2.5
		c0,1.099-0.892,1.993-1.99,1.999c-0.004,0-0.007-0.001-0.01-0.001h-6V6.002z M49.458,18h-5.5v-4.498h6
		c0.004,0,0.007-0.001,0.01-0.001c1.098,0.006,1.99,0.9,1.99,1.999C51.958,16.878,50.837,18,49.458,18z"/>
</g>
<g id="レイヤー_7">
</g>
<g id="レイヤー_9">
</g>
<g id="レイヤー_7のコピー" class="st30">
</g>
<g id="レイヤー_6" class="st30">
</g>
<g id="レイヤー_4">
</g>
<g id="レイヤー_5">
</g>
</svg>
