
      <svg xmlns="http://www.w3.org/2000/svg" version="1.1" width="200" height="200" style="display: block;"><polygon stroke-linejoin="round" stroke-miterlimit="1" stroke-width="1" points="208.64057159423828,187.6916275024414 199.28023529052734,222.57988739013672 214.07003784179688,221.52631378173828" style="fill:#648595;stroke:#648595;"></polygon><polygon stroke-linejoin="round" stroke-miterlimit="1" stroke-width="1" points="193.9964141845703,191.7626190185547 199.28023529052734,222.57988739013672 208.64057159423828,187.6916275024414" style="fill:#648494;stroke:#648494;"></polygon><polygon stroke-linejoin="round" stroke-miterlimit="1" stroke-width="1" points="209.0200424194336,161.73075103759766 193.9964141845703,191.7626190185547 208.64057159423828,187.6916275024414" style="fill:#628292;stroke:#628292;"></polygon><polygon stroke-linejoin="round" stroke-miterlimit="1" stroke-width="1" points="196.95620727539062,157.1491928100586 193.9964141845703,191.7626190185547 209.0200424194336,161.73075103759766" style="fill:#648595;stroke:#648595;"></polygon><polygon stroke-linejoin="round" stroke-miterlimit="1" stroke-width="1" points="214.685546875,127.83333969116211 196.95620727539062,157.1491928100586 209.0200424194336,161.73075103759766" style="fill:#6b8d9e;stroke:#6b8d9e;"></polygon><polygon stroke-linejoin="round" stroke-miterlimit="1" stroke-width="1" points="200.07127380371094,128.54349327087402 196.95620727539062,157.1491928100586 214.685546875,127.83333969116211" style="fill:#648595;stroke:#648595;"></polygon><polygon stroke-linejoin="round" stroke-miterlimit="1" stroke-width="1" points="231.4429931640625,102.9501006603241 200.07127380371094,128.54349327087402 214.685546875,127.83333969116211" style="fill:#638393;stroke:#638393;"></polygon><polygon stroke-linejoin="round" stroke-miterlimit="1" stroke-width="1" points="205.02696228027344,99.81327314674854 200.07127380371094,128.54349327087402 231.4429931640625,102.9501006603241" style="fill:#779db0;stroke:#779db0;"></polygon><polygon stroke-linejoin="round" stroke-miterlimit="1" stroke-width="1" points="214.9936981201172,71.41119003295898 205.02696228027344,99.81327314674854 231.4429931640625,102.9501006603241" style="fill:#759aad;stroke:#759aad;"></polygon><polygon stroke-linejoin="round" stroke-miterlimit="1" stroke-width="1" points="210.935546875,70.48582458496094 205.02696228027344,99.81327314674854 214.9936981201172,71.41119003295898" style="fill:#789eb2;stroke:#789eb2;"></polygon><polygon stroke-linejoin="round" stroke-miterlimit="1" stroke-width="1" points="208.0079803466797,41.434139251708984 210.935546875,70.48582458496094 214.9936981201172,71.41119003295898" style="fill:#789eb1;stroke:#789eb1;"></polygon><polygon stroke-linejoin="round" stroke-miterlimit="1" stroke-width="1" points="215.38143920898438,37.157501220703125 210.935546875,70.48582458496094 208.0079803466797,41.434139251708984" style="fill:#475e6a;stroke:#475e6a;"></polygon><polygon stroke-linejoin="round" stroke-miterlimit="1" stroke-width="1" points="211.84165954589844,11.725120544433594 215.38143920898438,37.157501220703125 208.0079803466797,41.434139251708984" style="fill:#475e6a;stroke:#475e6a;"></polygon><polygon stroke-linejoin="round" stroke-miterlimit="1" stroke-width="1" points="201.80467224121094,8.664939880371094 215.38143920898438,37.157501220703125 211.84165954589844,11.725120544433594" style="fill:#96c6dd;stroke:#96c6dd;"></polygon><polygon stroke-linejoin="round" stroke-miterlimit="1" stroke-width="1" points="212.46529388427734,-22.419700622558594 201.80467224121094,8.664939880371094 211.84165954589844,11.725120544433594" style="fill:#86b1c6;stroke:#86b1c6;"></polygon><polygon stroke-linejoin="round" stroke-miterlimit="1" stroke-width="1" points="209.00775146484375,-22.83374786376953 201.80467224121094,8.664939880371094 212.46529388427734,-22.419700622558594" style="fill:#4d6774;stroke:#4d6774;"></polygon><polygon stroke-linejoin="round" stroke-miterlimit="1" stroke-width="1" points="193.9964141845703,191.7626190185547 184.57412719726562,220.88288116455078 199.28023529052734,222.57988739013672" style="fill:#597685;stroke:#597685;"></polygon><polygon stroke-linejoin="round" stroke-miterlimit="1" stroke-width="1" points="182.29676055908203,187.0082015991211 184.57412719726562,220.88288116455078 193.9964141845703,191.7626190185547" style="fill:#6b8e9f;stroke:#6b8e9f;"></polygon><polygon stroke-linejoin="round" stroke-miterlimit="1" stroke-width="1" points="196.95620727539062,157.1491928100586 182.29676055908203,187.0082015991211 193.9964141845703,191.7626190185547" style="fill:#668798;stroke:#668798;"></polygon><polygon stroke-linejoin="round" stroke-miterlimit="1" stroke-width="1" points="201.99072265625,161.37167358398438 182.29676055908203,187.0082015991211 196.95620727539062,157.1491928100586" style="fill:#475e6a;stroke:#475e6a;"></polygon><polygon stroke-linejoin="round" stroke-miterlimit="1" stroke-width="1" points="200.07127380371094,128.54349327087402 201.99072265625,161.37167358398438 196.95620727539062,157.1491928100586" style="fill:#475e6a;stroke:#475e6a;"></polygon><polygon stroke-linejoin="round" stroke-miterlimit="1" stroke-width="1" points="197.91531372070312,130.15504837036133 201.99072265625,161.37167358398438 200.07127380371094,128.54349327087402" style="fill:#516c79;stroke:#516c79;"></polygon><polygon stroke-linejoin="round" stroke-miterlimit="1" stroke-width="1" points="205.02696228027344,99.81327314674854 197.91531372070312,130.15504837036133 200.07127380371094,128.54349327087402" style="fill:#526d7b;stroke:#526d7b;"></polygon><polygon stroke-linejoin="round" stroke-miterlimit="1" stroke-width="1" points="179.8844757080078,97.00132918357849 197.91531372070312,130.15504837036133 205.02696228027344,99.81327314674854" style="fill:#6a8d9e;stroke:#6a8d9e;"></polygon><polygon stroke-linejoin="round" stroke-miterlimit="1" stroke-width="1" points="210.935546875,70.48582458496094 179.8844757080078,97.00132918357849 205.02696228027344,99.81327314674854" style="fill:#68899a;stroke:#68899a;"></polygon><polygon stroke-linejoin="round" stroke-miterlimit="1" stroke-width="1" points="199.4110565185547,67.01176834106445 179.8844757080078,97.00132918357849 210.935546875,70.48582458496094" style="fill:#5d7b8a;stroke:#5d7b8a;"></polygon><polygon stroke-linejoin="round" stroke-miterlimit="1" stroke-width="1" points="215.38143920898438,37.157501220703125 199.4110565185547,67.01176834106445 210.935546875,70.48582458496094" style="fill:#597685;stroke:#597685;"></polygon><polygon stroke-linejoin="round" stroke-miterlimit="1" stroke-width="1" points="178.00225067138672,37.84638214111328 199.4110565185547,67.01176834106445 215.38143920898438,37.157501220703125" style="fill:#7ca4b8;stroke:#7ca4b8;"></polygon><polygon stroke-linejoin="round" stroke-miterlimit="1" stroke-width="1" points="201.80467224121094,8.664939880371094 178.00225067138672,37.84638214111328 215.38143920898438,37.157501220703125" style="fill:#789eb1;stroke:#789eb1;"></polygon><polygon stroke-linejoin="round" stroke-miterlimit="1" stroke-width="1" points="200.6351089477539,9.441650390625 178.00225067138672,37.84638214111328 201.80467224121094,8.664939880371094" style="fill:#7398ab;stroke:#7398ab;"></polygon><polygon stroke-linejoin="round" stroke-miterlimit="1" stroke-width="1" points="209.00775146484375,-22.83374786376953 200.6351089477539,9.441650390625 201.80467224121094,8.664939880371094" style="fill:#6b8e9f;stroke:#6b8e9f;"></polygon><polygon stroke-linejoin="round" stroke-miterlimit="1" stroke-width="1" points="201.66160583496094,-22.956268310546875 200.6351089477539,9.441650390625 209.00775146484375,-22.83374786376953" style="fill:#87b1c7;stroke:#87b1c7;"></polygon><polygon stroke-linejoin="round" stroke-miterlimit="1" stroke-width="1" points="182.29676055908203,187.0082015991211 173.96759033203125,221.34900665283203 184.57412719726562,220.88288116455078" style="fill:#6b8d9e;stroke:#6b8d9e;"></polygon><polygon stroke-linejoin="round" stroke-miterlimit="1" stroke-width="1" points="167.95453643798828,191.70913696289062 173.96759033203125,221.34900665283203 182.29676055908203,187.0082015991211" style="fill:#6f93a5;stroke:#6f93a5;"></polygon><polygon stroke-linejoin="round" stroke-miterlimit="1" stroke-width="1" points="201.99072265625,161.37167358398438 167.95453643798828,191.70913696289062 182.29676055908203,187.0082015991211" style="fill:#567280;stroke:#567280;"></polygon><polygon stroke-linejoin="round" stroke-miterlimit="1" stroke-width="1" points="167.15696716308594,159.7101058959961 167.95453643798828,191.70913696289062 201.99072265625,161.37167358398438" style="fill:#6e92a4;stroke:#6e92a4;"></polygon><polygon stroke-linejoin="round" stroke-miterlimit="1" stroke-width="1" points="197.91531372070312,130.15504837036133 167.15696716308594,159.7101058959961 201.99072265625,161.37167358398438" style="fill:#7296a8;stroke:#7296a8;"></polygon><polygon stroke-linejoin="round" stroke-miterlimit="1" stroke-width="1" points="165.0252456665039,129.49312210083008 167.15696716308594,159.7101058959961 197.91531372070312,130.15504837036133" style="fill:#7da5b9;stroke:#7da5b9;"></polygon><polygon stroke-linejoin="round" stroke-miterlimit="1" stroke-width="1" points="179.8844757080078,97.00132918357849 165.0252456665039,129.49312210083008 197.91531372070312,130.15504837036133" style="fill:#7ea6bb;stroke:#7ea6bb;"></polygon><polygon stroke-linejoin="round" stroke-miterlimit="1" stroke-width="1" points="170.36113739013672,97.01631760597229 165.0252456665039,129.49312210083008 179.8844757080078,97.00132918357849" style="fill:#7499ac;stroke:#7499ac;"></polygon><polygon stroke-linejoin="round" stroke-miterlimit="1" stroke-width="1" points="199.4110565185547,67.01176834106445 170.36113739013672,97.01631760597229 179.8844757080078,97.00132918357849" style="fill:#769caf;stroke:#769caf;"></polygon><polygon stroke-linejoin="round" stroke-miterlimit="1" stroke-width="1" points="170.59014129638672,71.84424591064453 170.36113739013672,97.01631760597229 199.4110565185547,67.01176834106445" style="fill:#92c0d7;stroke:#92c0d7;"></polygon><polygon stroke-linejoin="round" stroke-miterlimit="1" stroke-width="1" points="178.00225067138672,37.84638214111328 170.59014129638672,71.84424591064453 199.4110565185547,67.01176834106445" style="fill:#8db9cf;stroke:#8db9cf;"></polygon><polygon stroke-linejoin="round" stroke-miterlimit="1" stroke-width="1" points="172.9911346435547,38.242305755615234 170.59014129638672,71.84424591064453 178.00225067138672,37.84638214111328" style="fill:#506a78;stroke:#506a78;"></polygon><polygon stroke-linejoin="round" stroke-miterlimit="1" stroke-width="1" points="200.6351089477539,9.441650390625 172.9911346435547,38.242305755615234 178.00225067138672,37.84638214111328" style="fill:#557180;stroke:#557180;"></polygon><polygon stroke-linejoin="round" stroke-miterlimit="1" stroke-width="1" points="167.24858856201172,12.784286499023438 172.9911346435547,38.242305755615234 200.6351089477539,9.441650390625" style="fill:#6e92a3;stroke:#6e92a3;"></polygon><polygon stroke-linejoin="round" stroke-miterlimit="1" stroke-width="1" points="201.66160583496094,-22.956268310546875 167.24858856201172,12.784286499023438 200.6351089477539,9.441650390625" style="fill:#6d90a1;stroke:#6d90a1;"></polygon><polygon stroke-linejoin="round" stroke-miterlimit="1" stroke-width="1" points="185.76692962646484,-21.022438049316406 167.24858856201172,12.784286499023438 201.66160583496094,-22.956268310546875" style="fill:#6a8c9e;stroke:#6a8c9e;"></polygon><polygon stroke-linejoin="round" stroke-miterlimit="1" stroke-width="1" points="167.95453643798828,191.70913696289062 148.19458770751953,217.03726959228516 173.96759033203125,221.34900665283203" style="fill:#7094a6;stroke:#7094a6;"></polygon><polygon stroke-linejoin="round" stroke-miterlimit="1" stroke-width="1" points="148.9409294128418,187.1551055908203 148.19458770751953,217.03726959228516 167.95453643798828,191.70913696289062" style="fill:#6a8c9d;stroke:#6a8c9d;"></polygon><polygon stroke-linejoin="round" stroke-miterlimit="1" stroke-width="1" points="167.15696716308594,159.7101058959961 148.9409294128418,187.1551055908203 167.95453643798828,191.70913696289062" style="fill:#6c8ea0;stroke:#6c8ea0;"></polygon><polygon stroke-linejoin="round" stroke-miterlimit="1" stroke-width="1" points="148.15965270996094,157.8517837524414 148.9409294128418,187.1551055908203 167.15696716308594,159.7101058959961" style="fill:#7398aa;stroke:#7398aa;"></polygon><polygon stroke-linejoin="round" stroke-miterlimit="1" stroke-width="1" points="165.0252456665039,129.49312210083008 148.15965270996094,157.8517837524414 167.15696716308594,159.7101058959961" style="fill:#7ba2b6;stroke:#7ba2b6;"></polygon><polygon stroke-linejoin="round" stroke-miterlimit="1" stroke-width="1" points="164.00220489501953,132.9578628540039 148.15965270996094,157.8517837524414 165.0252456665039,129.49312210083008" style="fill:#475e6a;stroke:#475e6a;"></polygon><polygon stroke-linejoin="round" stroke-miterlimit="1" stroke-width="1" points="170.36113739013672,97.01631760597229 164.00220489501953,132.9578628540039 165.0252456665039,129.49312210083008" style="fill:#475e6a;stroke:#475e6a;"></polygon><polygon stroke-linejoin="round" stroke-miterlimit="1" stroke-width="1" points="170.2563247680664,98.31000697612762 164.00220489501953,132.9578628540039 170.36113739013672,97.01631760597229" style="fill:#e7ffff;stroke:#e7ffff;"></polygon><polygon stroke-linejoin="round" stroke-miterlimit="1" stroke-width="1" points="170.59014129638672,71.84424591064453 170.2563247680664,98.31000697612762 170.36113739013672,97.01631760597229" style="fill:#f4ffff;stroke:#f4ffff;"></polygon><polygon stroke-linejoin="round" stroke-miterlimit="1" stroke-width="1" points="161.23517990112305,72.30952072143555 170.2563247680664,98.31000697612762 170.59014129638672,71.84424591064453" style="fill:#91bfd6;stroke:#91bfd6;"></polygon><polygon stroke-linejoin="round" stroke-miterlimit="1" stroke-width="1" points="172.9911346435547,38.242305755615234 161.23517990112305,72.30952072143555 170.59014129638672,71.84424591064453" style="fill:#8ebad1;stroke:#8ebad1;"></polygon><polygon stroke-linejoin="round" stroke-miterlimit="1" stroke-width="1" points="171.7709197998047,42.8657112121582 161.23517990112305,72.30952072143555 172.9911346435547,38.242305755615234" style="fill:#bcf7ff;stroke:#bcf7ff;"></polygon><polygon stroke-linejoin="round" stroke-miterlimit="1" stroke-width="1" points="167.24858856201172,12.784286499023438 171.7709197998047,42.8657112121582 172.9911346435547,38.242305755615234" style="fill:#d7ffff;stroke:#d7ffff;"></polygon><polygon stroke-linejoin="round" stroke-miterlimit="1" stroke-width="1" points="155.38041305541992,7.15325927734375 171.7709197998047,42.8657112121582 167.24858856201172,12.784286499023438" style="fill:#94c3da;stroke:#94c3da;"></polygon><polygon stroke-linejoin="round" stroke-miterlimit="1" stroke-width="1" points="185.76692962646484,-21.022438049316406 155.38041305541992,7.15325927734375 167.24858856201172,12.784286499023438" style="fill:#7da5b9;stroke:#7da5b9;"></polygon><polygon stroke-linejoin="round" stroke-miterlimit="1" stroke-width="1" points="171.80757904052734,-22.5706787109375 155.38041305541992,7.15325927734375 185.76692962646484,-21.022438049316406" style="fill:#7ba2b6;stroke:#7ba2b6;"></polygon><polygon stroke-linejoin="round" stroke-miterlimit="1" stroke-width="1" points="148.9409294128418,187.1551055908203 140.9695587158203,220.87433624267578 148.19458770751953,217.03726959228516" style="fill:#678899;stroke:#678899;"></polygon><polygon stroke-linejoin="round" stroke-miterlimit="1" stroke-width="1" points="153.5563201904297,187.10975646972656 140.9695587158203,220.87433624267578 148.9409294128418,187.1551055908203" style="fill:#475e6a;stroke:#475e6a;"></polygon><polygon stroke-linejoin="round" stroke-miterlimit="1" stroke-width="1" points="148.15965270996094,157.8517837524414 153.5563201904297,187.10975646972656 148.9409294128418,187.1551055908203" style="fill:#475e6a;stroke:#475e6a;"></polygon><polygon stroke-linejoin="round" stroke-miterlimit="1" stroke-width="1" points="156.97301483154297,158.42473983764648 153.5563201904297,187.10975646972656 148.15965270996094,157.8517837524414" style="fill:#475e6a;stroke:#475e6a;"></polygon><polygon stroke-linejoin="round" stroke-miterlimit="1" stroke-width="1" points="164.00220489501953,132.9578628540039 156.97301483154297,158.42473983764648 148.15965270996094,157.8517837524414" style="fill:#475e6a;stroke:#475e6a;"></polygon><polygon stroke-linejoin="round" stroke-miterlimit="1" stroke-width="1" points="134.56718063354492,130.70593070983887 156.97301483154297,158.42473983764648 164.00220489501953,132.9578628540039" style="fill:#769bae;stroke:#769bae;"></polygon><polygon stroke-linejoin="round" stroke-miterlimit="1" stroke-width="1" points="170.2563247680664,98.31000697612762 134.56718063354492,130.70593070983887 164.00220489501953,132.9578628540039" style="fill:#8cb9cf;stroke:#8cb9cf;"></polygon><polygon stroke-linejoin="round" stroke-miterlimit="1" stroke-width="1" points="148.01345443725586,97.23037958145142 134.56718063354492,130.70593070983887 170.2563247680664,98.31000697612762" style="fill:#88b3c8;stroke:#88b3c8;"></polygon><polygon stroke-linejoin="round" stroke-miterlimit="1" stroke-width="1" points="161.23517990112305,72.30952072143555 148.01345443725586,97.23037958145142 170.2563247680664,98.31000697612762" style="fill:#91bfd6;stroke:#91bfd6;"></polygon><polygon stroke-linejoin="round" stroke-miterlimit="1" stroke-width="1" points="154.08715438842773,67.17489242553711 148.01345443725586,97.23037958145142 161.23517990112305,72.30952072143555" style="fill:#9acae2;stroke:#9acae2;"></polygon><polygon stroke-linejoin="round" stroke-miterlimit="1" stroke-width="1" points="171.7709197998047,42.8657112121582 154.08715438842773,67.17489242553711 161.23517990112305,72.30952072143555" style="fill:#95c4db;stroke:#95c4db;"></polygon><polygon stroke-linejoin="round" stroke-miterlimit="1" stroke-width="1" points="135.46238708496094,42.267738342285156 154.08715438842773,67.17489242553711 171.7709197998047,42.8657112121582" style="fill:#94c3da;stroke:#94c3da;"></polygon><polygon stroke-linejoin="round" stroke-miterlimit="1" stroke-width="1" points="155.38041305541992,7.15325927734375 135.46238708496094,42.267738342285156 171.7709197998047,42.8657112121582" style="fill:#81aabf;stroke:#81aabf;"></polygon><polygon stroke-linejoin="round" stroke-miterlimit="1" stroke-width="1" points="139.81252670288086,9.22393798828125 135.46238708496094,42.267738342285156 155.38041305541992,7.15325927734375" style="fill:#7ca3b7;stroke:#7ca3b7;"></polygon><polygon stroke-linejoin="round" stroke-miterlimit="1" stroke-width="1" points="171.80757904052734,-22.5706787109375 139.81252670288086,9.22393798828125 155.38041305541992,7.15325927734375" style="fill:#7da5b9;stroke:#7da5b9;"></polygon><polygon stroke-linejoin="round" stroke-miterlimit="1" stroke-width="1" points="139.83237075805664,-20.991058349609375 139.81252670288086,9.22393798828125 171.80757904052734,-22.5706787109375" style="fill:#769caf;stroke:#769caf;"></polygon><polygon stroke-linejoin="round" stroke-miterlimit="1" stroke-width="1" points="153.5563201904297,187.10975646972656 135.75950622558594,221.45730590820312 140.9695587158203,220.87433624267578" style="fill:#475e6a;stroke:#475e6a;"></polygon><polygon stroke-linejoin="round" stroke-miterlimit="1" stroke-width="1" points="133.05411529541016,187.80597686767578 135.75950622558594,221.45730590820312 153.5563201904297,187.10975646972656" style="fill:#759bae;stroke:#759bae;"></polygon><polygon stroke-linejoin="round" stroke-miterlimit="1" stroke-width="1" points="156.97301483154297,158.42473983764648 133.05411529541016,187.80597686767578 153.5563201904297,187.10975646972656" style="fill:#82acc1;stroke:#82acc1;"></polygon><polygon stroke-linejoin="round" stroke-miterlimit="1" stroke-width="1" points="133.8196563720703,157.91650772094727 133.05411529541016,187.80597686767578 156.97301483154297,158.42473983764648" style="fill:#607f8f;stroke:#607f8f;"></polygon><polygon stroke-linejoin="round" stroke-miterlimit="1" stroke-width="1" points="134.56718063354492,130.70593070983887 133.8196563720703,157.91650772094727 156.97301483154297,158.42473983764648" style="fill:#7aa1b4;stroke:#7aa1b4;"></polygon><polygon stroke-linejoin="round" stroke-miterlimit="1" stroke-width="1" points="130.3093719482422,130.60594177246094 133.8196563720703,157.91650772094727 134.56718063354492,130.70593070983887" style="fill:#89b4c9;stroke:#89b4c9;"></polygon><polygon stroke-linejoin="round" stroke-miterlimit="1" stroke-width="1" points="148.01345443725586,97.23037958145142 130.3093719482422,130.60594177246094 134.56718063354492,130.70593070983887" style="fill:#8ebbd1;stroke:#8ebbd1;"></polygon><polygon stroke-linejoin="round" stroke-miterlimit="1" stroke-width="1" points="135.56235122680664,97.1878719329834 130.3093719482422,130.60594177246094 148.01345443725586,97.23037958145142" style="fill:#9ecfe8;stroke:#9ecfe8;"></polygon><polygon stroke-linejoin="round" stroke-miterlimit="1" stroke-width="1" points="154.08715438842773,67.17489242553711 135.56235122680664,97.1878719329834 148.01345443725586,97.23037958145142" style="fill:#b1e9ff;stroke:#b1e9ff;"></polygon><polygon stroke-linejoin="round" stroke-miterlimit="1" stroke-width="1" points="118.55756378173828,69.67054557800293 135.56235122680664,97.1878719329834 154.08715438842773,67.17489242553711" style="fill:#bdf8ff;stroke:#bdf8ff;"></polygon><polygon stroke-linejoin="round" stroke-miterlimit="1" stroke-width="1" points="135.46238708496094,42.267738342285156 118.55756378173828,69.67054557800293 154.08715438842773,67.17489242553711" style="fill:#b4ecff;stroke:#b4ecff;"></polygon><polygon stroke-linejoin="round" stroke-miterlimit="1" stroke-width="1" points="141.01885223388672,41.51602554321289 118.55756378173828,69.67054557800293 135.46238708496094,42.267738342285156" style="fill:#475e6a;stroke:#475e6a;"></polygon><polygon stroke-linejoin="round" stroke-miterlimit="1" stroke-width="1" points="139.81252670288086,9.22393798828125 141.01885223388672,41.51602554321289 135.46238708496094,42.267738342285156" style="fill:#475e6a;stroke:#475e6a;"></polygon><polygon stroke-linejoin="round" stroke-miterlimit="1" stroke-width="1" points="141.99300384521484,10.227912902832031 141.01885223388672,41.51602554321289 139.81252670288086,9.22393798828125" style="fill:#678898;stroke:#678898;"></polygon><polygon stroke-linejoin="round" stroke-miterlimit="1" stroke-width="1" points="139.83237075805664,-20.991058349609375 141.99300384521484,10.227912902832031 139.81252670288086,9.22393798828125" style="fill:#607f8f;stroke:#607f8f;"></polygon><polygon stroke-linejoin="round" stroke-miterlimit="1" stroke-width="1" points="135.52165603637695,-17.136825561523438 141.99300384521484,10.227912902832031 139.83237075805664,-20.991058349609375" style="fill:#7fa7bb;stroke:#7fa7bb;"></polygon><polygon stroke-linejoin="round" stroke-miterlimit="1" stroke-width="1" points="133.05411529541016,187.80597686767578 108.84261322021484,222.99195861816406 135.75950622558594,221.45730590820312" style="fill:#7195a7;stroke:#7195a7;"></polygon><polygon stroke-linejoin="round" stroke-miterlimit="1" stroke-width="1" points="121.71234703063965,187.13202667236328 108.84261322021484,222.99195861816406 133.05411529541016,187.80597686767578" style="fill:#6b8d9f;stroke:#6b8d9f;"></polygon><polygon stroke-linejoin="round" stroke-miterlimit="1" stroke-width="1" points="133.8196563720703,157.91650772094727 121.71234703063965,187.13202667236328 133.05411529541016,187.80597686767578" style="fill:#628191;stroke:#628191;"></polygon><polygon stroke-linejoin="round" stroke-miterlimit="1" stroke-width="1" points="115.29862785339355,161.01667022705078 121.71234703063965,187.13202667236328 133.8196563720703,157.91650772094727" style="fill:#6f93a5;stroke:#6f93a5;"></polygon><polygon stroke-linejoin="round" stroke-miterlimit="1" stroke-width="1" points="130.3093719482422,130.60594177246094 115.29862785339355,161.01667022705078 133.8196563720703,157.91650772094727" style="fill:#85afc4;stroke:#85afc4;"></polygon><polygon stroke-linejoin="round" stroke-miterlimit="1" stroke-width="1" points="103.3520097732544,130.12234115600586 115.29862785339355,161.01667022705078 130.3093719482422,130.60594177246094" style="fill:#82abbf;stroke:#82abbf;"></polygon><polygon stroke-linejoin="round" stroke-miterlimit="1" stroke-width="1" points="135.56235122680664,97.1878719329834 103.3520097732544,130.12234115600586 130.3093719482422,130.60594177246094" style="fill:#92c1d8;stroke:#92c1d8;"></polygon><polygon stroke-linejoin="round" stroke-miterlimit="1" stroke-width="1" points="105.51655769348145,98.69260573387146 103.3520097732544,130.12234115600586 135.56235122680664,97.1878719329834" style="fill:#a6daf4;stroke:#a6daf4;"></polygon><polygon stroke-linejoin="round" stroke-miterlimit="1" stroke-width="1" points="118.55756378173828,69.67054557800293 105.51655769348145,98.69260573387146 135.56235122680664,97.1878719329834" style="fill:#c5ffff;stroke:#c5ffff;"></polygon><polygon stroke-linejoin="round" stroke-miterlimit="1" stroke-width="1" points="104.17448806762695,72.3513011932373 105.51655769348145,98.69260573387146 118.55756378173828,69.67054557800293" style="fill:#ceffff;stroke:#ceffff;"></polygon><polygon stroke-linejoin="round" stroke-miterlimit="1" stroke-width="1" points="141.01885223388672,41.51602554321289 104.17448806762695,72.3513011932373 118.55756378173828,69.67054557800293" style="fill:#ccffff;stroke:#ccffff;"></polygon><polygon stroke-linejoin="round" stroke-miterlimit="1" stroke-width="1" points="117.84923934936523,37.00174331665039 104.17448806762695,72.3513011932373 141.01885223388672,41.51602554321289" style="fill:#bef9ff;stroke:#bef9ff;"></polygon><polygon stroke-linejoin="round" stroke-miterlimit="1" stroke-width="1" points="141.99300384521484,10.227912902832031 117.84923934936523,37.00174331665039 141.01885223388672,41.51602554321289" style="fill:#94c2d9;stroke:#94c2d9;"></polygon><polygon stroke-linejoin="round" stroke-miterlimit="1" stroke-width="1" points="103.86746597290039,7.6614227294921875 117.84923934936523,37.00174331665039 141.99300384521484,10.227912902832031" style="fill:#93c1d8;stroke:#93c1d8;"></polygon><polygon stroke-linejoin="round" stroke-miterlimit="1" stroke-width="1" points="135.52165603637695,-17.136825561523438 103.86746597290039,7.6614227294921875 141.99300384521484,10.227912902832031" style="fill:#8db9d0;stroke:#8db9d0;"></polygon><polygon stroke-linejoin="round" stroke-miterlimit="1" stroke-width="1" points="105.72030639648438,-22.282859802246094 103.86746597290039,7.6614227294921875 135.52165603637695,-17.136825561523438" style="fill:#789fb2;stroke:#789fb2;"></polygon><polygon stroke-linejoin="round" stroke-miterlimit="1" stroke-width="1" points="121.71234703063965,187.13202667236328 88.23802089691162,217.00149536132812 108.84261322021484,222.99195861816406" style="fill:#68899a;stroke:#68899a;"></polygon><polygon stroke-linejoin="round" stroke-miterlimit="1" stroke-width="1" points="104.87212991714478,192.9617691040039 88.23802089691162,217.00149536132812 121.71234703063965,187.13202667236328" style="fill:#80a9bd;stroke:#80a9bd;"></polygon><polygon stroke-linejoin="round" stroke-miterlimit="1" stroke-width="1" points="115.29862785339355,161.01667022705078 104.87212991714478,192.9617691040039 121.71234703063965,187.13202667236328" style="fill:#6d90a2;stroke:#6d90a2;"></polygon><polygon stroke-linejoin="round" stroke-miterlimit="1" stroke-width="1" points="108.52415752410889,157.14253997802734 104.87212991714478,192.9617691040039 115.29862785339355,161.01667022705078" style="fill:#759aad;stroke:#759aad;"></polygon><polygon stroke-linejoin="round" stroke-miterlimit="1" stroke-width="1" points="103.3520097732544,130.12234115600586 108.52415752410889,157.14253997802734 115.29862785339355,161.01667022705078" style="fill:#769bae;stroke:#769bae;"></polygon><polygon stroke-linejoin="round" stroke-miterlimit="1" stroke-width="1" points="88.00341129302979,127.04153060913086 108.52415752410889,157.14253997802734 103.3520097732544,130.12234115600586" style="fill:#82abc0;stroke:#82abc0;"></polygon><polygon stroke-linejoin="round" stroke-miterlimit="1" stroke-width="1" points="105.51655769348145,98.69260573387146 88.00341129302979,127.04153060913086 103.3520097732544,130.12234115600586" style="fill:#96c5dc;stroke:#96c5dc;"></polygon><polygon stroke-linejoin="round" stroke-miterlimit="1" stroke-width="1" points="111.51651859283447,100.05993466079235 88.00341129302979,127.04153060913086 105.51655769348145,98.69260573387146" style="fill:#475e6a;stroke:#475e6a;"></polygon><polygon stroke-linejoin="round" stroke-miterlimit="1" stroke-width="1" points="104.17448806762695,72.3513011932373 111.51651859283447,100.05993466079235 105.51655769348145,98.69260573387146" style="fill:#475e6a;stroke:#475e6a;"></polygon><polygon stroke-linejoin="round" stroke-miterlimit="1" stroke-width="1" points="93.04395580291748,70.49382591247559 111.51651859283447,100.05993466079235 104.17448806762695,72.3513011932373" style="fill:#ceffff;stroke:#ceffff;"></polygon><polygon stroke-linejoin="round" stroke-miterlimit="1" stroke-width="1" points="117.84923934936523,37.00174331665039 93.04395580291748,70.49382591247559 104.17448806762695,72.3513011932373" style="fill:#d0ffff;stroke:#d0ffff;"></polygon><polygon stroke-linejoin="round" stroke-miterlimit="1" stroke-width="1" points="110.17187404632568,41.311546325683594 93.04395580291748,70.49382591247559 117.84923934936523,37.00174331665039" style="fill:#bffaff;stroke:#bffaff;"></polygon><polygon stroke-linejoin="round" stroke-miterlimit="1" stroke-width="1" points="103.86746597290039,7.6614227294921875 110.17187404632568,41.311546325683594 117.84923934936523,37.00174331665039" style="fill:#b0e7ff;stroke:#b0e7ff;"></polygon><polygon stroke-linejoin="round" stroke-miterlimit="1" stroke-width="1" points="90.77722644805908,11.988151550292969 110.17187404632568,41.311546325683594 103.86746597290039,7.6614227294921875" style="fill:#a3d6f0;stroke:#a3d6f0;"></polygon><polygon stroke-linejoin="round" stroke-miterlimit="1" stroke-width="1" points="105.72030639648438,-22.282859802246094 90.77722644805908,11.988151550292969 103.86746597290039,7.6614227294921875" style="fill:#80a9be;stroke:#80a9be;"></polygon><polygon stroke-linejoin="round" stroke-miterlimit="1" stroke-width="1" points="89.18643951416016,-17.700286865234375 90.77722644805908,11.988151550292969 105.72030639648438,-22.282859802246094" style="fill:#83acc1;stroke:#83acc1;"></polygon><polygon stroke-linejoin="round" stroke-miterlimit="1" stroke-width="1" points="104.87212991714478,192.9617691040039 82.1974983215332,222.30404663085938 88.23802089691162,217.00149536132812" style="fill:#9ed0e9;stroke:#9ed0e9;"></polygon><polygon stroke-linejoin="round" stroke-miterlimit="1" stroke-width="1" points="96.70187377929688,189.4514389038086 82.1974983215332,222.30404663085938 104.87212991714478,192.9617691040039" style="fill:#55707e;stroke:#55707e;"></polygon><polygon stroke-linejoin="round" stroke-miterlimit="1" stroke-width="1" points="108.52415752410889,157.14253997802734 96.70187377929688,189.4514389038086 104.87212991714478,192.9617691040039" style="fill:#6a8c9d;stroke:#6a8c9d;"></polygon><polygon stroke-linejoin="round" stroke-miterlimit="1" stroke-width="1" points="73.2796401977539,158.14664459228516 96.70187377929688,189.4514389038086 108.52415752410889,157.14253997802734" style="fill:#7ea6ba;stroke:#7ea6ba;"></polygon><polygon stroke-linejoin="round" stroke-miterlimit="1" stroke-width="1" points="88.00341129302979,127.04153060913086 73.2796401977539,158.14664459228516 108.52415752410889,157.14253997802734" style="fill:#7398ab;stroke:#7398ab;"></polygon><polygon stroke-linejoin="round" stroke-miterlimit="1" stroke-width="1" points="75.51818084716797,128.55273246765137 73.2796401977539,158.14664459228516 88.00341129302979,127.04153060913086" style="fill:#7aa0b4;stroke:#7aa0b4;"></polygon><polygon stroke-linejoin="round" stroke-miterlimit="1" stroke-width="1" points="111.51651859283447,100.05993466079235 75.51818084716797,128.55273246765137 88.00341129302979,127.04153060913086" style="fill:#9acae3;stroke:#9acae3;"></polygon><polygon stroke-linejoin="round" stroke-miterlimit="1" stroke-width="1" points="84.50338077545166,102.9987199306488 75.51818084716797,128.55273246765137 111.51651859283447,100.05993466079235" style="fill:#99c9e1;stroke:#99c9e1;"></polygon><polygon stroke-linejoin="round" stroke-miterlimit="1" stroke-width="1" points="93.04395580291748,70.49382591247559 84.50338077545166,102.9987199306488 111.51651859283447,100.05993466079235" style="fill:#aee4ff;stroke:#aee4ff;"></polygon><polygon stroke-linejoin="round" stroke-miterlimit="1" stroke-width="1" points="80.85920715332031,69.07629776000977 84.50338077545166,102.9987199306488 93.04395580291748,70.49382591247559" style="fill:#b8f2ff;stroke:#b8f2ff;"></polygon><polygon stroke-linejoin="round" stroke-miterlimit="1" stroke-width="1" points="110.17187404632568,41.311546325683594 80.85920715332031,69.07629776000977 93.04395580291748,70.49382591247559" style="fill:#d5ffff;stroke:#d5ffff;"></polygon><polygon stroke-linejoin="round" stroke-miterlimit="1" stroke-width="1" points="75.46268653869629,37.16239929199219 80.85920715332031,69.07629776000977 110.17187404632568,41.311546325683594" style="fill:#d0ffff;stroke:#d0ffff;"></polygon><polygon stroke-linejoin="round" stroke-miterlimit="1" stroke-width="1" points="90.77722644805908,11.988151550292969 75.46268653869629,37.16239929199219 110.17187404632568,41.311546325683594" style="fill:#b8f2ff;stroke:#b8f2ff;"></polygon><polygon stroke-linejoin="round" stroke-miterlimit="1" stroke-width="1" points="83.47082138061523,11.413612365722656 75.46268653869629,37.16239929199219 90.77722644805908,11.988151550292969" style="fill:#aadff9;stroke:#aadff9;"></polygon><polygon stroke-linejoin="round" stroke-miterlimit="1" stroke-width="1" points="89.18643951416016,-17.700286865234375 83.47082138061523,11.413612365722656 90.77722644805908,11.988151550292969" style="fill:#8bb7cd;stroke:#8bb7cd;"></polygon><polygon stroke-linejoin="round" stroke-miterlimit="1" stroke-width="1" points="88.37496185302734,-19.977096557617188 83.47082138061523,11.413612365722656 89.18643951416016,-17.700286865234375" style="fill:#6c8fa1;stroke:#6c8fa1;"></polygon><polygon stroke-linejoin="round" stroke-miterlimit="1" stroke-width="1" points="96.70187377929688,189.4514389038086 62.07687759399414,220.12976837158203 82.1974983215332,222.30404663085938" style="fill:#5e7d8c;stroke:#5e7d8c;"></polygon><polygon stroke-linejoin="round" stroke-miterlimit="1" stroke-width="1" points="79.1231861114502,187.10274505615234 62.07687759399414,220.12976837158203 96.70187377929688,189.4514389038086" style="fill:#759bad;stroke:#759bad;"></polygon><polygon stroke-linejoin="round" stroke-miterlimit="1" stroke-width="1" points="73.2796401977539,158.14664459228516 79.1231861114502,187.10274505615234 96.70187377929688,189.4514389038086" style="fill:#68899a;stroke:#68899a;"></polygon><polygon stroke-linejoin="round" stroke-miterlimit="1" stroke-width="1" points="81.62074661254883,161.6406364440918 79.1231861114502,187.10274505615234 73.2796401977539,158.14664459228516" style="fill:#475e6a;stroke:#475e6a;"></polygon><polygon stroke-linejoin="round" stroke-miterlimit="1" stroke-width="1" points="75.51818084716797,128.55273246765137 81.62074661254883,161.6406364440918 73.2796401977539,158.14664459228516" style="fill:#475e6a;stroke:#475e6a;"></polygon><polygon stroke-linejoin="round" stroke-miterlimit="1" stroke-width="1" points="64.67398452758789,128.69399642944336 81.62074661254883,161.6406364440918 75.51818084716797,128.55273246765137" style="fill:#82acc0;stroke:#82acc0;"></polygon><polygon stroke-linejoin="round" stroke-miterlimit="1" stroke-width="1" points="84.50338077545166,102.9987199306488 64.67398452758789,128.69399642944336 75.51818084716797,128.55273246765137" style="fill:#8bb7cd;stroke:#8bb7cd;"></polygon><polygon stroke-linejoin="round" stroke-miterlimit="1" stroke-width="1" points="73.45511817932129,102.99551630020142 64.67398452758789,128.69399642944336 84.50338077545166,102.9987199306488" style="fill:#8ab6cb;stroke:#8ab6cb;"></polygon><polygon stroke-linejoin="round" stroke-miterlimit="1" stroke-width="1" points="80.85920715332031,69.07629776000977 73.45511817932129,102.99551630020142 84.50338077545166,102.9987199306488" style="fill:#ade3fe;stroke:#ade3fe;"></polygon><polygon stroke-linejoin="round" stroke-miterlimit="1" stroke-width="1" points="71.9103775024414,71.77051544189453 73.45511817932129,102.99551630020142 80.85920715332031,69.07629776000977" style="fill:#92c0d7;stroke:#92c0d7;"></polygon><polygon stroke-linejoin="round" stroke-miterlimit="1" stroke-width="1" points="75.46268653869629,37.16239929199219 71.9103775024414,71.77051544189453 80.85920715332031,69.07629776000977" style="fill:#aae0fa;stroke:#aae0fa;"></polygon><polygon stroke-linejoin="round" stroke-miterlimit="1" stroke-width="1" points="76.98546409606934,42.47013854980469 71.9103775024414,71.77051544189453 75.46268653869629,37.16239929199219" style="fill:#475e6a;stroke:#475e6a;"></polygon><polygon stroke-linejoin="round" stroke-miterlimit="1" stroke-width="1" points="83.47082138061523,11.413612365722656 76.98546409606934,42.47013854980469 75.46268653869629,37.16239929199219" style="fill:#475e6a;stroke:#475e6a;"></polygon><polygon stroke-linejoin="round" stroke-miterlimit="1" stroke-width="1" points="58.090206146240234,12.57818603515625 76.98546409606934,42.47013854980469 83.47082138061523,11.413612365722656" style="fill:#9ed0e9;stroke:#9ed0e9;"></polygon><polygon stroke-linejoin="round" stroke-miterlimit="1" stroke-width="1" points="88.37496185302734,-19.977096557617188 58.090206146240234,12.57818603515625 83.47082138061523,11.413612365722656" style="fill:#84aec3;stroke:#84aec3;"></polygon><polygon stroke-linejoin="round" stroke-miterlimit="1" stroke-width="1" points="64.24985122680664,-17.014488220214844 58.090206146240234,12.57818603515625 88.37496185302734,-19.977096557617188" style="fill:#6f93a5;stroke:#6f93a5;"></polygon><polygon stroke-linejoin="round" stroke-miterlimit="1" stroke-width="1" points="79.1231861114502,187.10274505615234 65.04328918457031,219.34333038330078 62.07687759399414,220.12976837158203" style="fill:#475f6b;stroke:#475f6b;"></polygon><polygon stroke-linejoin="round" stroke-miterlimit="1" stroke-width="1" points="43.43414306640625,187.19216918945312 65.04328918457031,219.34333038330078 79.1231861114502,187.10274505615234" style="fill:#68899a;stroke:#68899a;"></polygon><polygon stroke-linejoin="round" stroke-miterlimit="1" stroke-width="1" points="81.62074661254883,161.6406364440918 43.43414306640625,187.19216918945312 79.1231861114502,187.10274505615234" style="fill:#68899a;stroke:#68899a;"></polygon><polygon stroke-linejoin="round" stroke-miterlimit="1" stroke-width="1" points="66.93736267089844,161.98215866088867 43.43414306640625,187.19216918945312 81.62074661254883,161.6406364440918" style="fill:#648494;stroke:#648494;"></polygon><polygon stroke-linejoin="round" stroke-miterlimit="1" stroke-width="1" points="64.67398452758789,128.69399642944336 66.93736267089844,161.98215866088867 81.62074661254883,161.6406364440918" style="fill:#86b0c6;stroke:#86b0c6;"></polygon><polygon stroke-linejoin="round" stroke-miterlimit="1" stroke-width="1" points="49.53695297241211,130.97651481628418 66.93736267089844,161.98215866088867 64.67398452758789,128.69399642944336" style="fill:#82abc0;stroke:#82abc0;"></polygon><polygon stroke-linejoin="round" stroke-miterlimit="1" stroke-width="1" points="73.45511817932129,102.99551630020142 49.53695297241211,130.97651481628418 64.67398452758789,128.69399642944336" style="fill:#79a0b4;stroke:#79a0b4;"></polygon><polygon stroke-linejoin="round" stroke-miterlimit="1" stroke-width="1" points="60.52058410644531,97.99030542373657 49.53695297241211,130.97651481628418 73.45511817932129,102.99551630020142" style="fill:#7fa7bb;stroke:#7fa7bb;"></polygon><polygon stroke-linejoin="round" stroke-miterlimit="1" stroke-width="1" points="71.9103775024414,71.77051544189453 60.52058410644531,97.99030542373657 73.45511817932129,102.99551630020142" style="fill:#a7dcf6;stroke:#a7dcf6;"></polygon><polygon stroke-linejoin="round" stroke-miterlimit="1" stroke-width="1" points="60.72927474975586,72.76991653442383 60.52058410644531,97.99030542373657 71.9103775024414,71.77051544189453" style="fill:#b4edff;stroke:#b4edff;"></polygon><polygon stroke-linejoin="round" stroke-miterlimit="1" stroke-width="1" points="76.98546409606934,42.47013854980469 60.72927474975586,72.76991653442383 71.9103775024414,71.77051544189453" style="fill:#ccffff;stroke:#ccffff;"></polygon><polygon stroke-linejoin="round" stroke-miterlimit="1" stroke-width="1" points="63.74853515625,37.352928161621094 60.72927474975586,72.76991653442383 76.98546409606934,42.47013854980469" style="fill:#b8f2ff;stroke:#b8f2ff;"></polygon><polygon stroke-linejoin="round" stroke-miterlimit="1" stroke-width="1" points="58.090206146240234,12.57818603515625 63.74853515625,37.352928161621094 76.98546409606934,42.47013854980469" style="fill:#a4d8f1;stroke:#a4d8f1;"></polygon><polygon stroke-linejoin="round" stroke-miterlimit="1" stroke-width="1" points="43.03815841674805,7.02093505859375 63.74853515625,37.352928161621094 58.090206146240234,12.57818603515625" style="fill:#8ebbd2;stroke:#8ebbd2;"></polygon><polygon stroke-linejoin="round" stroke-miterlimit="1" stroke-width="1" points="64.24985122680664,-17.014488220214844 43.03815841674805,7.02093505859375 58.090206146240234,12.57818603515625" style="fill:#7ca3b7;stroke:#7ca3b7;"></polygon><polygon stroke-linejoin="round" stroke-miterlimit="1" stroke-width="1" points="54.53363037109375,-18.816368103027344 43.03815841674805,7.02093505859375 64.24985122680664,-17.014488220214844" style="fill:#92c0d7;stroke:#92c0d7;"></polygon><polygon stroke-linejoin="round" stroke-miterlimit="1" stroke-width="1" points="43.43414306640625,187.19216918945312 49.71392059326172,222.1487274169922 65.04328918457031,219.34333038330078" style="fill:#587584;stroke:#587584;"></polygon><polygon stroke-linejoin="round" stroke-miterlimit="1" stroke-width="1" points="28.39232635498047,187.1574249267578 49.71392059326172,222.1487274169922 43.43414306640625,187.19216918945312" style="fill:#4f6976;stroke:#4f6976;"></polygon><polygon stroke-linejoin="round" stroke-miterlimit="1" stroke-width="1" points="66.93736267089844,161.98215866088867 28.39232635498047,187.1574249267578 43.43414306640625,187.19216918945312" style="fill:#7093a5;stroke:#7093a5;"></polygon><polygon stroke-linejoin="round" stroke-miterlimit="1" stroke-width="1" points="46.968421936035156,159.69543838500977 28.39232635498047,187.1574249267578 66.93736267089844,161.98215866088867" style="fill:#638393;stroke:#638393;"></polygon><polygon stroke-linejoin="round" stroke-miterlimit="1" stroke-width="1" points="49.53695297241211,130.97651481628418 46.968421936035156,159.69543838500977 66.93736267089844,161.98215866088867" style="fill:#79a0b4;stroke:#79a0b4;"></polygon><polygon stroke-linejoin="round" stroke-miterlimit="1" stroke-width="1" points="45.47484588623047,129.29642486572266 46.968421936035156,159.69543838500977 49.53695297241211,130.97651481628418" style="fill:#93c2d9;stroke:#93c2d9;"></polygon><polygon stroke-linejoin="round" stroke-miterlimit="1" stroke-width="1" points="60.52058410644531,97.99030542373657 45.47484588623047,129.29642486572266 49.53695297241211,130.97651481628418" style="fill:#83acc1;stroke:#83acc1;"></polygon><polygon stroke-linejoin="round" stroke-miterlimit="1" stroke-width="1" points="43.31157684326172,102.87296676635742 45.47484588623047,129.29642486572266 60.52058410644531,97.99030542373657" style="fill:#7da5b9;stroke:#7da5b9;"></polygon><polygon stroke-linejoin="round" stroke-miterlimit="1" stroke-width="1" points="60.72927474975586,72.76991653442383 43.31157684326172,102.87296676635742 60.52058410644531,97.99030542373657" style="fill:#90bdd4;stroke:#90bdd4;"></polygon><polygon stroke-linejoin="round" stroke-miterlimit="1" stroke-width="1" points="31.100730895996094,72.70269393920898 43.31157684326172,102.87296676635742 60.72927474975586,72.76991653442383" style="fill:#89b4ca;stroke:#89b4ca;"></polygon><polygon stroke-linejoin="round" stroke-miterlimit="1" stroke-width="1" points="63.74853515625,37.352928161621094 31.100730895996094,72.70269393920898 60.72927474975586,72.76991653442383" style="fill:#97c6de;stroke:#97c6de;"></polygon><polygon stroke-linejoin="round" stroke-miterlimit="1" stroke-width="1" points="46.55373001098633,37.720699310302734 31.100730895996094,72.70269393920898 63.74853515625,37.352928161621094" style="fill:#8dbad1;stroke:#8dbad1;"></polygon><polygon stroke-linejoin="round" stroke-miterlimit="1" stroke-width="1" points="43.03815841674805,7.02093505859375 46.55373001098633,37.720699310302734 63.74853515625,37.352928161621094" style="fill:#8ebbd1;stroke:#8ebbd1;"></polygon><polygon stroke-linejoin="round" stroke-miterlimit="1" stroke-width="1" points="45.9461669921875,12.972000122070312 46.55373001098633,37.720699310302734 43.03815841674805,7.02093505859375" style="fill:#475e6a;stroke:#475e6a;"></polygon><polygon stroke-linejoin="round" stroke-miterlimit="1" stroke-width="1" points="54.53363037109375,-18.816368103027344 45.9461669921875,12.972000122070312 43.03815841674805,7.02093505859375" style="fill:#475e6a;stroke:#475e6a;"></polygon><polygon stroke-linejoin="round" stroke-miterlimit="1" stroke-width="1" points="33.241912841796875,-21.508331298828125 45.9461669921875,12.972000122070312 54.53363037109375,-18.816368103027344" style="fill:#799fb2;stroke:#799fb2;"></polygon><polygon stroke-linejoin="round" stroke-miterlimit="1" stroke-width="1" points="28.39232635498047,187.1574249267578 30.161636352539062,219.39877319335938 49.71392059326172,222.1487274169922" style="fill:#779caf;stroke:#779caf;"></polygon><polygon stroke-linejoin="round" stroke-miterlimit="1" stroke-width="1" points="34.467857360839844,187.2173080444336 30.161636352539062,219.39877319335938 28.39232635498047,187.1574249267578" style="fill:#475e6a;stroke:#475e6a;"></polygon><polygon stroke-linejoin="round" stroke-miterlimit="1" stroke-width="1" points="46.968421936035156,159.69543838500977 34.467857360839844,187.2173080444336 28.39232635498047,187.1574249267578" style="fill:#475e6a;stroke:#475e6a;"></polygon><polygon stroke-linejoin="round" stroke-miterlimit="1" stroke-width="1" points="28.548072814941406,162.73029708862305 34.467857360839844,187.2173080444336 46.968421936035156,159.69543838500977" style="fill:#658697;stroke:#658697;"></polygon><polygon stroke-linejoin="round" stroke-miterlimit="1" stroke-width="1" points="45.47484588623047,129.29642486572266 28.548072814941406,162.73029708862305 46.968421936035156,159.69543838500977" style="fill:#759aad;stroke:#759aad;"></polygon><polygon stroke-linejoin="round" stroke-miterlimit="1" stroke-width="1" points="19.71954345703125,131.62672805786133 28.548072814941406,162.73029708862305 45.47484588623047,129.29642486572266" style="fill:#7499ac;stroke:#7499ac;"></polygon><polygon stroke-linejoin="round" stroke-miterlimit="1" stroke-width="1" points="43.31157684326172,102.87296676635742 19.71954345703125,131.62672805786133 45.47484588623047,129.29642486572266" style="fill:#7196a8;stroke:#7196a8;"></polygon><polygon stroke-linejoin="round" stroke-miterlimit="1" stroke-width="1" points="15.230400085449219,102.80874872207642 19.71954345703125,131.62672805786133 43.31157684326172,102.87296676635742" style="fill:#6d90a2;stroke:#6d90a2;"></polygon><polygon stroke-linejoin="round" stroke-miterlimit="1" stroke-width="1" points="31.100730895996094,72.70269393920898 15.230400085449219,102.80874872207642 43.31157684326172,102.87296676635742" style="fill:#769caf;stroke:#769caf;"></polygon><polygon stroke-linejoin="round" stroke-miterlimit="1" stroke-width="1" points="22.387054443359375,67.15312957763672 15.230400085449219,102.80874872207642 31.100730895996094,72.70269393920898" style="fill:#7ca3b7;stroke:#7ca3b7;"></polygon><polygon stroke-linejoin="round" stroke-miterlimit="1" stroke-width="1" points="46.55373001098633,37.720699310302734 22.387054443359375,67.15312957763672 31.100730895996094,72.70269393920898" style="fill:#85b0c5;stroke:#85b0c5;"></polygon><polygon stroke-linejoin="round" stroke-miterlimit="1" stroke-width="1" points="32.78205871582031,42.18744659423828 22.387054443359375,67.15312957763672 46.55373001098633,37.720699310302734" style="fill:#a6dbf5;stroke:#a6dbf5;"></polygon><polygon stroke-linejoin="round" stroke-miterlimit="1" stroke-width="1" points="45.9461669921875,12.972000122070312 32.78205871582031,42.18744659423828 46.55373001098633,37.720699310302734" style="fill:#a0d2eb;stroke:#a0d2eb;"></polygon><polygon stroke-linejoin="round" stroke-miterlimit="1" stroke-width="1" points="35.386268615722656,12.999778747558594 32.78205871582031,42.18744659423828 45.9461669921875,12.972000122070312" style="fill:#86b1c6;stroke:#86b1c6;"></polygon><polygon stroke-linejoin="round" stroke-miterlimit="1" stroke-width="1" points="33.241912841796875,-21.508331298828125 35.386268615722656,12.999778747558594 45.9461669921875,12.972000122070312" style="fill:#7ca4b8;stroke:#7ca4b8;"></polygon><polygon stroke-linejoin="round" stroke-miterlimit="1" stroke-width="1" points="14.356559753417969,-22.515899658203125 35.386268615722656,12.999778747558594 33.241912841796875,-21.508331298828125" style="fill:#7195a8;stroke:#7195a8;"></polygon><polygon stroke-linejoin="round" stroke-miterlimit="1" stroke-width="1" points="34.467857360839844,187.2173080444336 16.737350463867188,217.61878967285156 30.161636352539062,219.39877319335938" style="fill:#648494;stroke:#648494;"></polygon><polygon stroke-linejoin="round" stroke-miterlimit="1" stroke-width="1" points="19.73645782470703,187.4255599975586 16.737350463867188,217.61878967285156 34.467857360839844,187.2173080444336" style="fill:#658696;stroke:#658696;"></polygon><polygon stroke-linejoin="round" stroke-miterlimit="1" stroke-width="1" points="28.548072814941406,162.73029708862305 19.73645782470703,187.4255599975586 34.467857360839844,187.2173080444336" style="fill:#5b7887;stroke:#5b7887;"></polygon><polygon stroke-linejoin="round" stroke-miterlimit="1" stroke-width="1" points="4.293304443359375,162.7355194091797 19.73645782470703,187.4255599975586 28.548072814941406,162.73029708862305" style="fill:#5b7988;stroke:#5b7988;"></polygon><polygon stroke-linejoin="round" stroke-miterlimit="1" stroke-width="1" points="19.71954345703125,131.62672805786133 4.293304443359375,162.7355194091797 28.548072814941406,162.73029708862305" style="fill:#6e91a3;stroke:#6e91a3;"></polygon><polygon stroke-linejoin="round" stroke-miterlimit="1" stroke-width="1" points="21.867591857910156,129.85661697387695 4.293304443359375,162.7355194091797 19.71954345703125,131.62672805786133" style="fill:#648494;stroke:#648494;"></polygon><polygon stroke-linejoin="round" stroke-miterlimit="1" stroke-width="1" points="15.230400085449219,102.80874872207642 21.867591857910156,129.85661697387695 19.71954345703125,131.62672805786133" style="fill:#759aad;stroke:#759aad;"></polygon><polygon stroke-linejoin="round" stroke-miterlimit="1" stroke-width="1" points="-1.2119598388671875,101.9743367433548 21.867591857910156,129.85661697387695 15.230400085449219,102.80874872207642" style="fill:#779db0;stroke:#779db0;"></polygon><polygon stroke-linejoin="round" stroke-miterlimit="1" stroke-width="1" points="22.387054443359375,67.15312957763672 -1.2119598388671875,101.9743367433548 15.230400085449219,102.80874872207642" style="fill:#769caf;stroke:#769caf;"></polygon><polygon stroke-linejoin="round" stroke-miterlimit="1" stroke-width="1" points="9.482627868652344,67.0842170715332 -1.2119598388671875,101.9743367433548 22.387054443359375,67.15312957763672" style="fill:#799fb3;stroke:#799fb3;"></polygon><polygon stroke-linejoin="round" stroke-miterlimit="1" stroke-width="1" points="32.78205871582031,42.18744659423828 9.482627868652344,67.0842170715332 22.387054443359375,67.15312957763672" style="fill:#80a9bd;stroke:#80a9bd;"></polygon><polygon stroke-linejoin="round" stroke-miterlimit="1" stroke-width="1" points="16.317588806152344,42.963417053222656 9.482627868652344,67.0842170715332 32.78205871582031,42.18744659423828" style="fill:#6b8e9f;stroke:#6b8e9f;"></polygon><polygon stroke-linejoin="round" stroke-miterlimit="1" stroke-width="1" points="35.386268615722656,12.999778747558594 16.317588806152344,42.963417053222656 32.78205871582031,42.18744659423828" style="fill:#6e91a3;stroke:#6e91a3;"></polygon><polygon stroke-linejoin="round" stroke-miterlimit="1" stroke-width="1" points="-1.3893890380859375,9.413658142089844 16.317588806152344,42.963417053222656 35.386268615722656,12.999778747558594" style="fill:#7093a5;stroke:#7093a5;"></polygon><polygon stroke-linejoin="round" stroke-miterlimit="1" stroke-width="1" points="14.356559753417969,-22.515899658203125 -1.3893890380859375,9.413658142089844 35.386268615722656,12.999778747558594" style="fill:#6d8fa1;stroke:#6d8fa1;"></polygon><polygon stroke-linejoin="round" stroke-miterlimit="1" stroke-width="1" points="-1.4896774291992188,-18.647430419921875 -1.3893890380859375,9.413658142089844 14.356559753417969,-22.515899658203125" style="fill:#7398ab;stroke:#7398ab;"></polygon><polygon stroke-linejoin="round" stroke-miterlimit="1" stroke-width="1" points="19.73645782470703,187.4255599975586 -7.348655700683594,220.07318878173828 16.737350463867188,217.61878967285156" style="fill:#67899a;stroke:#67899a;"></polygon><polygon stroke-linejoin="round" stroke-miterlimit="1" stroke-width="1" points="6.962623596191406,187.07535552978516 -7.348655700683594,220.07318878173828 19.73645782470703,187.4255599975586" style="fill:#698b9c;stroke:#698b9c;"></polygon><polygon stroke-linejoin="round" stroke-miterlimit="1" stroke-width="1" points="4.293304443359375,162.7355194091797 6.962623596191406,187.07535552978516 19.73645782470703,187.4255599975586" style="fill:#60808f;stroke:#60808f;"></polygon><polygon stroke-linejoin="round" stroke-miterlimit="1" stroke-width="1" points="-1.27667236328125,157.13500595092773 6.962623596191406,187.07535552978516 4.293304443359375,162.7355194091797" style="fill:#475e6a;stroke:#475e6a;"></polygon><polygon stroke-linejoin="round" stroke-miterlimit="1" stroke-width="1" points="21.867591857910156,129.85661697387695 -1.27667236328125,157.13500595092773 4.293304443359375,162.7355194091797" style="fill:#597584;stroke:#597584;"></polygon><polygon stroke-linejoin="round" stroke-miterlimit="1" stroke-width="1" points="-4.9384918212890625,130.00514221191406 -1.27667236328125,157.13500595092773 21.867591857910156,129.85661697387695" style="fill:#5f7d8d;stroke:#5f7d8d;"></polygon><polygon stroke-linejoin="round" stroke-miterlimit="1" stroke-width="1" points="-1.2119598388671875,101.9743367433548 -4.9384918212890625,130.00514221191406 21.867591857910156,129.85661697387695" style="fill:#638394;stroke:#638394;"></polygon><polygon stroke-linejoin="round" stroke-miterlimit="1" stroke-width="1" points="-13.812942504882812,102.08056640625 -4.9384918212890625,130.00514221191406 -1.2119598388671875,101.9743367433548" style="fill:#7ca3b7;stroke:#7ca3b7;"></polygon><polygon stroke-linejoin="round" stroke-miterlimit="1" stroke-width="1" points="9.482627868652344,67.0842170715332 -13.812942504882812,102.08056640625 -1.2119598388671875,101.9743367433548" style="fill:#80a9bd;stroke:#80a9bd;"></polygon><polygon stroke-linejoin="round" stroke-miterlimit="1" stroke-width="1" points="1.79888916015625,72.91527557373047 -13.812942504882812,102.08056640625 9.482627868652344,67.0842170715332" style="fill:#b4ecff;stroke:#b4ecff;"></polygon><polygon stroke-linejoin="round" stroke-miterlimit="1" stroke-width="1" points="16.317588806152344,42.963417053222656 1.79888916015625,72.91527557373047 9.482627868652344,67.0842170715332" style="fill:#b5eeff;stroke:#b5eeff;"></polygon><polygon stroke-linejoin="round" stroke-miterlimit="1" stroke-width="1" points="-16.49890899658203,42.92155456542969 1.79888916015625,72.91527557373047 16.317588806152344,42.963417053222656" style="fill:#7aa1b4;stroke:#7aa1b4;"></polygon><polygon stroke-linejoin="round" stroke-miterlimit="1" stroke-width="1" points="-1.3893890380859375,9.413658142089844 -16.49890899658203,42.92155456542969 16.317588806152344,42.963417053222656" style="fill:#789eb1;stroke:#789eb1;"></polygon><polygon stroke-linejoin="round" stroke-miterlimit="1" stroke-width="1" points="-6.7277374267578125,8.50225830078125 -16.49890899658203,42.92155456542969 -1.3893890380859375,9.413658142089844" style="fill:#ace2fd;stroke:#ace2fd;"></polygon><polygon stroke-linejoin="round" stroke-miterlimit="1" stroke-width="1" points="-1.4896774291992188,-18.647430419921875 -6.7277374267578125,8.50225830078125 -1.3893890380859375,9.413658142089844" style="fill:#a7dbf5;stroke:#a7dbf5;"></polygon><polygon stroke-linejoin="round" stroke-miterlimit="1" stroke-width="1" points="6.3278045654296875,-22.433349609375 -6.7277374267578125,8.50225830078125 -1.4896774291992188,-18.647430419921875" style="fill:#475e6a;stroke:#475e6a;"></polygon><polygon stroke-linejoin="round" stroke-miterlimit="1" stroke-width="1" points="6.962623596191406,187.07535552978516 -29.118331909179688,220.0018081665039 -7.348655700683594,220.07318878173828" style="fill:#618190;stroke:#618190;"></polygon><polygon stroke-linejoin="round" stroke-miterlimit="1" stroke-width="1" points="-23.287551879882812,191.2970199584961 -29.118331909179688,220.0018081665039 6.962623596191406,187.07535552978516" style="fill:#5f7d8d;stroke:#5f7d8d;"></polygon><polygon stroke-linejoin="round" stroke-miterlimit="1" stroke-width="1" points="-1.27667236328125,157.13500595092773 -23.287551879882812,191.2970199584961 6.962623596191406,187.07535552978516" style="fill:#658696;stroke:#658696;"></polygon><polygon stroke-linejoin="round" stroke-miterlimit="1" stroke-width="1" points="-8.6932373046875,157.9022445678711 -23.287551879882812,191.2970199584961 -1.27667236328125,157.13500595092773" style="fill:#7397aa;stroke:#7397aa;"></polygon><polygon stroke-linejoin="round" stroke-miterlimit="1" stroke-width="1" points="-4.9384918212890625,130.00514221191406 -8.6932373046875,157.9022445678711 -1.27667236328125,157.13500595092773" style="fill:#8fbdd3;stroke:#8fbdd3;"></polygon><polygon stroke-linejoin="round" stroke-miterlimit="1" stroke-width="1" points="-31.76708984375,129.04849815368652 -8.6932373046875,157.9022445678711 -4.9384918212890625,130.00514221191406" style="fill:#779cb0;stroke:#779cb0;"></polygon><polygon stroke-linejoin="round" stroke-miterlimit="1" stroke-width="1" points="-13.812942504882812,102.08056640625 -31.76708984375,129.04849815368652 -4.9384918212890625,130.00514221191406" style="fill:#7196a8;stroke:#7196a8;"></polygon><polygon stroke-linejoin="round" stroke-miterlimit="1" stroke-width="1" points="-20.846511840820312,99.3468229174614 -31.76708984375,129.04849815368652 -13.812942504882812,102.08056640625" style="fill:#7094a7;stroke:#7094a7;"></polygon><polygon stroke-linejoin="round" stroke-miterlimit="1" stroke-width="1" points="1.79888916015625,72.91527557373047 -20.846511840820312,99.3468229174614 -13.812942504882812,102.08056640625" style="fill:#7094a7;stroke:#7094a7;"></polygon><polygon stroke-linejoin="round" stroke-miterlimit="1" stroke-width="1" points="-8.169349670410156,71.53353691101074 -20.846511840820312,99.3468229174614 1.79888916015625,72.91527557373047" style="fill:#597684;stroke:#597684;"></polygon><polygon stroke-linejoin="round" stroke-miterlimit="1" stroke-width="1" points="-16.49890899658203,42.92155456542969 -8.169349670410156,71.53353691101074 1.79888916015625,72.91527557373047" style="fill:#536e7c;stroke:#536e7c;"></polygon><polygon stroke-linejoin="round" stroke-miterlimit="1" stroke-width="1" points="-31.491241455078125,42.93067932128906 -8.169349670410156,71.53353691101074 -16.49890899658203,42.92155456542969" style="fill:#6f92a4;stroke:#6f92a4;"></polygon><polygon stroke-linejoin="round" stroke-miterlimit="1" stroke-width="1" points="-6.7277374267578125,8.50225830078125 -31.491241455078125,42.93067932128906 -16.49890899658203,42.92155456542969" style="fill:#6d91a2;stroke:#6d91a2;"></polygon><polygon stroke-linejoin="round" stroke-miterlimit="1" stroke-width="1" points="-31.998779296875,8.866928100585938 -31.491241455078125,42.93067932128906 -6.7277374267578125,8.50225830078125" style="fill:#5e7c8b;stroke:#5e7c8b;"></polygon><polygon stroke-linejoin="round" stroke-miterlimit="1" stroke-width="1" points="6.3278045654296875,-22.433349609375 -31.998779296875,8.866928100585938 -6.7277374267578125,8.50225830078125" style="fill:#5e7c8b;stroke:#5e7c8b;"></polygon><polygon stroke-linejoin="round" stroke-miterlimit="1" stroke-width="1" points="-10.542221069335938,-17.181671142578125 -31.998779296875,8.866928100585938 6.3278045654296875,-22.433349609375" style="fill:#4c6471;stroke:#4c6471;"></polygon></svg>